<mxfile host="app.diagrams.net" modified="2023-10-08T17:36:28.022Z" agent="Mozilla/5.0 (Macintosh; Intel Mac OS X 10_15_7) AppleWebKit/537.36 (KHTML, like Gecko) Chrome/117.0.0.0 Safari/537.36" etag="zlahQNO2DfIeN6Y325Ai" version="22.0.4" type="device">
  <diagram name="Page-1" id="oR78LcA6apzyaXkC0zgB">
    <mxGraphModel dx="3563" dy="2687" grid="1" gridSize="10" guides="1" tooltips="1" connect="1" arrows="1" fold="1" page="1" pageScale="1" pageWidth="850" pageHeight="1100" math="0" shadow="0">
      <root>
        <mxCell id="0" />
        <mxCell id="1" parent="0" />
        <mxCell id="Zjhu46lZlZ1TYFW_hqHB-9" value="Image" style="rounded=0;whiteSpace=wrap;html=1;sketch=1;curveFitting=1;jiggle=2;strokeWidth=3;" parent="1" vertex="1">
          <mxGeometry x="1050" y="300" width="120" height="60" as="geometry" />
        </mxCell>
        <mxCell id="Zjhu46lZlZ1TYFW_hqHB-10" value="Container enviroment" style="rounded=0;whiteSpace=wrap;html=1;" parent="1" vertex="1">
          <mxGeometry x="350" y="300" width="120" height="60" as="geometry" />
        </mxCell>
        <mxCell id="Zjhu46lZlZ1TYFW_hqHB-16" value="Located in" style="rhombus;whiteSpace=wrap;html=1;" parent="1" vertex="1">
          <mxGeometry x="700" y="970" width="80" height="80" as="geometry" />
        </mxCell>
        <mxCell id="Zjhu46lZlZ1TYFW_hqHB-65" value="" style="endArrow=none;html=1;rounded=0;exitX=0.5;exitY=0;exitDx=0;exitDy=0;shape=link;entryX=0;entryY=1;entryDx=0;entryDy=0;" parent="1" source="QWWgwm_in2HaH2h3KdBQ-63" target="Zjhu46lZlZ1TYFW_hqHB-9" edge="1">
          <mxGeometry width="50" height="50" relative="1" as="geometry">
            <mxPoint x="840" y="450" as="sourcePoint" />
            <mxPoint x="1170" y="360" as="targetPoint" />
          </mxGeometry>
        </mxCell>
        <mxCell id="Zjhu46lZlZ1TYFW_hqHB-66" value="1" style="edgeLabel;html=1;align=center;verticalAlign=middle;resizable=0;points=[];" parent="Zjhu46lZlZ1TYFW_hqHB-65" vertex="1" connectable="0">
          <mxGeometry x="0.308" relative="1" as="geometry">
            <mxPoint as="offset" />
          </mxGeometry>
        </mxCell>
        <mxCell id="QWWgwm_in2HaH2h3KdBQ-142" value="" style="edgeStyle=orthogonalEdgeStyle;rounded=0;orthogonalLoop=1;jettySize=auto;html=1;" parent="1" source="Zjhu46lZlZ1TYFW_hqHB-68" target="Zjhu46lZlZ1TYFW_hqHB-72" edge="1">
          <mxGeometry relative="1" as="geometry" />
        </mxCell>
        <mxCell id="Zjhu46lZlZ1TYFW_hqHB-68" value="App Container" style="rounded=0;whiteSpace=wrap;html=1;sketch=1;curveFitting=1;jiggle=2;strokeWidth=3;" parent="1" vertex="1">
          <mxGeometry x="620" y="300" width="120" height="60" as="geometry" />
        </mxCell>
        <mxCell id="Zjhu46lZlZ1TYFW_hqHB-71" value="Based on" style="rhombus;whiteSpace=wrap;html=1;" parent="1" vertex="1">
          <mxGeometry x="800" y="290" width="80" height="80" as="geometry" />
        </mxCell>
        <mxCell id="Zjhu46lZlZ1TYFW_hqHB-72" value="Runs in" style="rhombus;whiteSpace=wrap;html=1;sketch=1;curveFitting=1;jiggle=2;strokeWidth=3;" parent="1" vertex="1">
          <mxGeometry x="510" y="290" width="80" height="80" as="geometry" />
        </mxCell>
        <mxCell id="Zjhu46lZlZ1TYFW_hqHB-73" value="" style="endArrow=none;html=1;rounded=0;exitX=1;exitY=0.5;exitDx=0;exitDy=0;entryX=0;entryY=0.5;entryDx=0;entryDy=0;shape=link;" parent="1" source="Zjhu46lZlZ1TYFW_hqHB-68" target="Zjhu46lZlZ1TYFW_hqHB-71" edge="1">
          <mxGeometry width="50" height="50" relative="1" as="geometry">
            <mxPoint x="760" y="560" as="sourcePoint" />
            <mxPoint x="900" y="510" as="targetPoint" />
          </mxGeometry>
        </mxCell>
        <mxCell id="Zjhu46lZlZ1TYFW_hqHB-74" value="1" style="edgeLabel;html=1;align=center;verticalAlign=middle;resizable=0;points=[];" parent="Zjhu46lZlZ1TYFW_hqHB-73" vertex="1" connectable="0">
          <mxGeometry x="0.308" relative="1" as="geometry">
            <mxPoint as="offset" />
          </mxGeometry>
        </mxCell>
        <mxCell id="Zjhu46lZlZ1TYFW_hqHB-75" value="" style="endArrow=none;html=1;rounded=0;entryX=1;entryY=0.5;entryDx=0;entryDy=0;exitX=0;exitY=0.5;exitDx=0;exitDy=0;" parent="1" source="Zjhu46lZlZ1TYFW_hqHB-9" target="Zjhu46lZlZ1TYFW_hqHB-71" edge="1">
          <mxGeometry width="50" height="50" relative="1" as="geometry">
            <mxPoint x="890" y="310" as="sourcePoint" />
            <mxPoint x="850" y="240" as="targetPoint" />
          </mxGeometry>
        </mxCell>
        <mxCell id="Zjhu46lZlZ1TYFW_hqHB-76" value="1" style="edgeLabel;html=1;align=center;verticalAlign=middle;resizable=0;points=[];" parent="Zjhu46lZlZ1TYFW_hqHB-75" vertex="1" connectable="0">
          <mxGeometry x="0.308" relative="1" as="geometry">
            <mxPoint as="offset" />
          </mxGeometry>
        </mxCell>
        <mxCell id="Zjhu46lZlZ1TYFW_hqHB-77" value="" style="endArrow=none;html=1;rounded=0;shape=link;" parent="1" target="Zjhu46lZlZ1TYFW_hqHB-72" edge="1">
          <mxGeometry width="50" height="50" relative="1" as="geometry">
            <mxPoint x="620" y="330" as="sourcePoint" />
            <mxPoint x="860" y="150" as="targetPoint" />
          </mxGeometry>
        </mxCell>
        <mxCell id="Zjhu46lZlZ1TYFW_hqHB-78" value="M" style="edgeLabel;html=1;align=center;verticalAlign=middle;resizable=0;points=[];" parent="Zjhu46lZlZ1TYFW_hqHB-77" vertex="1" connectable="0">
          <mxGeometry x="0.308" relative="1" as="geometry">
            <mxPoint as="offset" />
          </mxGeometry>
        </mxCell>
        <mxCell id="Zjhu46lZlZ1TYFW_hqHB-79" value="" style="endArrow=none;html=1;rounded=0;entryX=1;entryY=0.5;entryDx=0;entryDy=0;" parent="1" target="Zjhu46lZlZ1TYFW_hqHB-10" edge="1">
          <mxGeometry width="50" height="50" relative="1" as="geometry">
            <mxPoint x="510" y="330" as="sourcePoint" />
            <mxPoint x="690" y="200" as="targetPoint" />
          </mxGeometry>
        </mxCell>
        <mxCell id="Zjhu46lZlZ1TYFW_hqHB-80" value="M" style="edgeLabel;html=1;align=center;verticalAlign=middle;resizable=0;points=[];" parent="Zjhu46lZlZ1TYFW_hqHB-79" vertex="1" connectable="0">
          <mxGeometry x="0.308" relative="1" as="geometry">
            <mxPoint as="offset" />
          </mxGeometry>
        </mxCell>
        <mxCell id="Zjhu46lZlZ1TYFW_hqHB-93" value="" style="endArrow=none;html=1;rounded=0;exitX=1;exitY=0.5;exitDx=0;exitDy=0;entryX=0;entryY=0.5;entryDx=0;entryDy=0;" parent="1" target="Zjhu46lZlZ1TYFW_hqHB-92" edge="1">
          <mxGeometry width="50" height="50" relative="1" as="geometry">
            <mxPoint x="880" y="180" as="sourcePoint" />
            <mxPoint x="870" y="190" as="targetPoint" />
          </mxGeometry>
        </mxCell>
        <mxCell id="Zjhu46lZlZ1TYFW_hqHB-94" value="M" style="edgeLabel;html=1;align=center;verticalAlign=middle;resizable=0;points=[];" parent="Zjhu46lZlZ1TYFW_hqHB-93" vertex="1" connectable="0">
          <mxGeometry x="0.308" relative="1" as="geometry">
            <mxPoint as="offset" />
          </mxGeometry>
        </mxCell>
        <mxCell id="Zjhu46lZlZ1TYFW_hqHB-133" value="app_name*" style="rounded=0;whiteSpace=wrap;html=1;align=left;" parent="1" vertex="1">
          <mxGeometry x="640" y="380" width="100" height="20" as="geometry" />
        </mxCell>
        <mxCell id="Zjhu46lZlZ1TYFW_hqHB-135" value="name *" style="rounded=0;whiteSpace=wrap;html=1;align=left;" parent="1" vertex="1">
          <mxGeometry x="370" y="360" width="100" height="20" as="geometry" />
        </mxCell>
        <mxCell id="Zjhu46lZlZ1TYFW_hqHB-136" value="app_name *" style="rounded=0;whiteSpace=wrap;html=1;align=left;" parent="1" vertex="1">
          <mxGeometry x="1050" y="360" width="100" height="20" as="geometry" />
        </mxCell>
        <mxCell id="Zjhu46lZlZ1TYFW_hqHB-142" value="version *" style="rounded=0;whiteSpace=wrap;html=1;align=left;" parent="1" vertex="1">
          <mxGeometry x="1050" y="380" width="100" height="20" as="geometry" />
        </mxCell>
        <mxCell id="QWWgwm_in2HaH2h3KdBQ-46" value="Git repository" style="rounded=0;whiteSpace=wrap;html=1;" parent="1" vertex="1">
          <mxGeometry x="990" y="980" width="120" height="60" as="geometry" />
        </mxCell>
        <mxCell id="QWWgwm_in2HaH2h3KdBQ-47" value="CI/CD pipeline" style="rounded=0;whiteSpace=wrap;html=1;strokeWidth=3;sketch=1;curveFitting=1;jiggle=2;" parent="1" vertex="1">
          <mxGeometry x="900" y="698.75" width="120" height="60" as="geometry" />
        </mxCell>
        <mxCell id="QWWgwm_in2HaH2h3KdBQ-48" value="" style="endArrow=none;html=1;rounded=0;exitX=0;exitY=0.5;exitDx=0;exitDy=0;entryX=1;entryY=0.5;entryDx=0;entryDy=0;" parent="1" source="QWWgwm_in2HaH2h3KdBQ-46" target="Zjhu46lZlZ1TYFW_hqHB-16" edge="1">
          <mxGeometry width="50" height="50" relative="1" as="geometry">
            <mxPoint x="1320" y="920" as="sourcePoint" />
            <mxPoint x="1230" y="1000" as="targetPoint" />
          </mxGeometry>
        </mxCell>
        <mxCell id="QWWgwm_in2HaH2h3KdBQ-49" value="1" style="edgeLabel;html=1;align=center;verticalAlign=middle;resizable=0;points=[];" parent="QWWgwm_in2HaH2h3KdBQ-48" vertex="1" connectable="0">
          <mxGeometry x="-0.2143" relative="1" as="geometry">
            <mxPoint as="offset" />
          </mxGeometry>
        </mxCell>
        <mxCell id="QWWgwm_in2HaH2h3KdBQ-55" value="Triggered&lt;br&gt;by" style="rhombus;whiteSpace=wrap;html=1;strokeWidth=3;sketch=1;curveFitting=1;jiggle=2;" parent="1" vertex="1">
          <mxGeometry x="1010" y="860" width="80" height="80" as="geometry" />
        </mxCell>
        <mxCell id="QWWgwm_in2HaH2h3KdBQ-56" value="" style="endArrow=none;html=1;rounded=0;exitX=0.5;exitY=1;exitDx=0;exitDy=0;entryX=0.5;entryY=0;entryDx=0;entryDy=0;" parent="1" source="QWWgwm_in2HaH2h3KdBQ-55" target="QWWgwm_in2HaH2h3KdBQ-46" edge="1">
          <mxGeometry width="50" height="50" relative="1" as="geometry">
            <mxPoint x="1060" y="810" as="sourcePoint" />
            <mxPoint x="950" y="820" as="targetPoint" />
          </mxGeometry>
        </mxCell>
        <mxCell id="QWWgwm_in2HaH2h3KdBQ-57" value="1" style="edgeLabel;html=1;align=center;verticalAlign=middle;resizable=0;points=[];" parent="QWWgwm_in2HaH2h3KdBQ-56" vertex="1" connectable="0">
          <mxGeometry x="0.308" relative="1" as="geometry">
            <mxPoint as="offset" />
          </mxGeometry>
        </mxCell>
        <mxCell id="QWWgwm_in2HaH2h3KdBQ-58" value="" style="endArrow=none;html=1;rounded=0;exitX=0.5;exitY=1;exitDx=0;exitDy=0;entryX=0.5;entryY=0;entryDx=0;entryDy=0;shape=link;" parent="1" source="QWWgwm_in2HaH2h3KdBQ-47" target="QWWgwm_in2HaH2h3KdBQ-55" edge="1">
          <mxGeometry width="50" height="50" relative="1" as="geometry">
            <mxPoint x="1130" y="940" as="sourcePoint" />
            <mxPoint x="1110" y="850" as="targetPoint" />
          </mxGeometry>
        </mxCell>
        <mxCell id="QWWgwm_in2HaH2h3KdBQ-59" value="1" style="edgeLabel;html=1;align=center;verticalAlign=middle;resizable=0;points=[];" parent="QWWgwm_in2HaH2h3KdBQ-58" vertex="1" connectable="0">
          <mxGeometry x="0.308" relative="1" as="geometry">
            <mxPoint as="offset" />
          </mxGeometry>
        </mxCell>
        <mxCell id="QWWgwm_in2HaH2h3KdBQ-60" value="M" style="edgeLabel;html=1;align=center;verticalAlign=middle;resizable=0;points=[];" parent="QWWgwm_in2HaH2h3KdBQ-58" vertex="1" connectable="0">
          <mxGeometry x="0.2878" y="1" relative="1" as="geometry">
            <mxPoint as="offset" />
          </mxGeometry>
        </mxCell>
        <mxCell id="QWWgwm_in2HaH2h3KdBQ-63" value="Is built&lt;br&gt;by" style="rhombus;whiteSpace=wrap;html=1;" parent="1" vertex="1">
          <mxGeometry x="930" y="580" width="80" height="80" as="geometry" />
        </mxCell>
        <mxCell id="QWWgwm_in2HaH2h3KdBQ-64" value="" style="endArrow=none;html=1;rounded=0;exitX=0.5;exitY=0;exitDx=0;exitDy=0;entryX=0.5;entryY=1;entryDx=0;entryDy=0;" parent="1" source="QWWgwm_in2HaH2h3KdBQ-47" target="QWWgwm_in2HaH2h3KdBQ-63" edge="1">
          <mxGeometry width="50" height="50" relative="1" as="geometry">
            <mxPoint x="1060" y="750" as="sourcePoint" />
            <mxPoint x="950" y="740" as="targetPoint" />
          </mxGeometry>
        </mxCell>
        <mxCell id="QWWgwm_in2HaH2h3KdBQ-65" value="1" style="edgeLabel;html=1;align=center;verticalAlign=middle;resizable=0;points=[];" parent="QWWgwm_in2HaH2h3KdBQ-64" vertex="1" connectable="0">
          <mxGeometry x="0.308" relative="1" as="geometry">
            <mxPoint as="offset" />
          </mxGeometry>
        </mxCell>
        <mxCell id="QWWgwm_in2HaH2h3KdBQ-66" value="name *" style="rounded=0;whiteSpace=wrap;html=1;align=left;" parent="1" vertex="1">
          <mxGeometry x="920" y="758.75" width="100" height="20" as="geometry" />
        </mxCell>
        <mxCell id="QWWgwm_in2HaH2h3KdBQ-67" value="command" style="rounded=0;whiteSpace=wrap;html=1;align=left;" parent="1" vertex="1">
          <mxGeometry x="920" y="798.75" width="100" height="20" as="geometry" />
        </mxCell>
        <mxCell id="QWWgwm_in2HaH2h3KdBQ-68" value="repo *" style="rounded=0;whiteSpace=wrap;html=1;align=left;" parent="1" vertex="1">
          <mxGeometry x="920" y="778.75" width="100" height="20" as="geometry" />
        </mxCell>
        <mxCell id="QWWgwm_in2HaH2h3KdBQ-69" value="organization *" style="rounded=0;whiteSpace=wrap;html=1;align=left;" parent="1" vertex="1">
          <mxGeometry x="1010" y="1040" width="100" height="20" as="geometry" />
        </mxCell>
        <mxCell id="QWWgwm_in2HaH2h3KdBQ-70" value="name&amp;nbsp; *" style="rounded=0;whiteSpace=wrap;html=1;align=left;" parent="1" vertex="1">
          <mxGeometry x="1010" y="1060" width="100" height="20" as="geometry" />
        </mxCell>
        <mxCell id="QWWgwm_in2HaH2h3KdBQ-71" value="access" style="rounded=0;whiteSpace=wrap;html=1;align=left;" parent="1" vertex="1">
          <mxGeometry x="1010" y="1080" width="100" height="20" as="geometry" />
        </mxCell>
        <mxCell id="QWWgwm_in2HaH2h3KdBQ-72" value="OLTP&lt;br style=&quot;border-color: var(--border-color);&quot;&gt;DB" style="rounded=0;whiteSpace=wrap;html=1;" parent="1" vertex="1">
          <mxGeometry x="-110" y="1048.75" width="120" height="60" as="geometry" />
        </mxCell>
        <mxCell id="QWWgwm_in2HaH2h3KdBQ-73" value="Data warehouse" style="rounded=0;whiteSpace=wrap;html=1;" parent="1" vertex="1">
          <mxGeometry x="470" y="948.75" width="120" height="60" as="geometry" />
        </mxCell>
        <mxCell id="QWWgwm_in2HaH2h3KdBQ-74" value="Message broker" style="rounded=0;whiteSpace=wrap;html=1;" parent="1" vertex="1">
          <mxGeometry x="260" y="1048.75" width="120" height="60" as="geometry" />
        </mxCell>
        <mxCell id="QWWgwm_in2HaH2h3KdBQ-75" value="Service" style="rounded=0;whiteSpace=wrap;html=1;strokeWidth=1;" parent="1" vertex="1">
          <mxGeometry x="30" y="698.75" width="120" height="60" as="geometry" />
        </mxCell>
        <mxCell id="QWWgwm_in2HaH2h3KdBQ-76" value="ETL Job" style="rounded=0;whiteSpace=wrap;html=1;strokeWidth=1;" parent="1" vertex="1">
          <mxGeometry x="185" y="698.75" width="120" height="60" as="geometry" />
        </mxCell>
        <mxCell id="QWWgwm_in2HaH2h3KdBQ-79" value="Application" style="rounded=0;whiteSpace=wrap;html=1;" parent="1" vertex="1">
          <mxGeometry x="620" y="530" width="120" height="60" as="geometry" />
        </mxCell>
        <mxCell id="QWWgwm_in2HaH2h3KdBQ-82" value="Uploads data" style="rhombus;whiteSpace=wrap;html=1;" parent="1" vertex="1">
          <mxGeometry x="405" y="780" width="85" height="80" as="geometry" />
        </mxCell>
        <mxCell id="QWWgwm_in2HaH2h3KdBQ-83" value="" style="endArrow=none;html=1;rounded=0;exitX=0.5;exitY=0;exitDx=0;exitDy=0;entryX=1;entryY=0.5;entryDx=0;entryDy=0;" parent="1" source="QWWgwm_in2HaH2h3KdBQ-73" target="QWWgwm_in2HaH2h3KdBQ-82" edge="1">
          <mxGeometry width="50" height="50" relative="1" as="geometry">
            <mxPoint x="960" y="948.75" as="sourcePoint" />
            <mxPoint x="1020" y="1028.75" as="targetPoint" />
          </mxGeometry>
        </mxCell>
        <mxCell id="QWWgwm_in2HaH2h3KdBQ-84" value="1" style="edgeLabel;html=1;align=center;verticalAlign=middle;resizable=0;points=[];" parent="QWWgwm_in2HaH2h3KdBQ-83" vertex="1" connectable="0">
          <mxGeometry x="0.308" relative="1" as="geometry">
            <mxPoint as="offset" />
          </mxGeometry>
        </mxCell>
        <mxCell id="QWWgwm_in2HaH2h3KdBQ-85" value="" style="endArrow=none;html=1;rounded=0;exitX=1;exitY=0.5;exitDx=0;exitDy=0;entryX=0;entryY=0.5;entryDx=0;entryDy=0;shape=link;" parent="1" source="QWWgwm_in2HaH2h3KdBQ-76" target="QWWgwm_in2HaH2h3KdBQ-82" edge="1">
          <mxGeometry width="50" height="50" relative="1" as="geometry">
            <mxPoint x="645" y="668.75" as="sourcePoint" />
            <mxPoint x="646" y="698.75" as="targetPoint" />
          </mxGeometry>
        </mxCell>
        <mxCell id="QWWgwm_in2HaH2h3KdBQ-86" value="M" style="edgeLabel;html=1;align=center;verticalAlign=middle;resizable=0;points=[];" parent="QWWgwm_in2HaH2h3KdBQ-85" vertex="1" connectable="0">
          <mxGeometry x="0.308" relative="1" as="geometry">
            <mxPoint as="offset" />
          </mxGeometry>
        </mxCell>
        <mxCell id="QWWgwm_in2HaH2h3KdBQ-87" value="OLTP Store" style="rounded=0;whiteSpace=wrap;html=1;" parent="1" vertex="1">
          <mxGeometry x="90" y="948.75" width="120" height="60" as="geometry" />
        </mxCell>
        <mxCell id="QWWgwm_in2HaH2h3KdBQ-88" value="Extracts" style="rhombus;whiteSpace=wrap;html=1;" parent="1" vertex="1">
          <mxGeometry x="202.5" y="838.75" width="85" height="80" as="geometry" />
        </mxCell>
        <mxCell id="QWWgwm_in2HaH2h3KdBQ-89" value="" style="endArrow=none;html=1;rounded=0;exitX=0.5;exitY=0;exitDx=0;exitDy=0;entryX=0.5;entryY=1;entryDx=0;entryDy=0;shape=link;" parent="1" source="QWWgwm_in2HaH2h3KdBQ-167" target="QWWgwm_in2HaH2h3KdBQ-76" edge="1">
          <mxGeometry width="50" height="50" relative="1" as="geometry">
            <mxPoint x="900" y="918.75" as="sourcePoint" />
            <mxPoint x="900" y="868.75" as="targetPoint" />
          </mxGeometry>
        </mxCell>
        <mxCell id="QWWgwm_in2HaH2h3KdBQ-90" value="M" style="edgeLabel;html=1;align=center;verticalAlign=middle;resizable=0;points=[];" parent="QWWgwm_in2HaH2h3KdBQ-89" vertex="1" connectable="0">
          <mxGeometry x="0.308" relative="1" as="geometry">
            <mxPoint as="offset" />
          </mxGeometry>
        </mxCell>
        <mxCell id="QWWgwm_in2HaH2h3KdBQ-91" value="" style="endArrow=none;html=1;rounded=0;exitX=1;exitY=0;exitDx=0;exitDy=0;entryX=0;entryY=0.5;entryDx=0;entryDy=0;" parent="1" source="QWWgwm_in2HaH2h3KdBQ-87" target="QWWgwm_in2HaH2h3KdBQ-88" edge="1">
          <mxGeometry width="50" height="50" relative="1" as="geometry">
            <mxPoint x="900" y="788.75" as="sourcePoint" />
            <mxPoint x="900" y="718.75" as="targetPoint" />
          </mxGeometry>
        </mxCell>
        <mxCell id="QWWgwm_in2HaH2h3KdBQ-92" value="1" style="edgeLabel;html=1;align=center;verticalAlign=middle;resizable=0;points=[];" parent="QWWgwm_in2HaH2h3KdBQ-91" vertex="1" connectable="0">
          <mxGeometry x="0.308" relative="1" as="geometry">
            <mxPoint as="offset" />
          </mxGeometry>
        </mxCell>
        <mxCell id="QWWgwm_in2HaH2h3KdBQ-93" value="" style="endArrow=none;html=1;rounded=0;exitX=0;exitY=0;exitDx=0;exitDy=0;entryX=0.5;entryY=1;entryDx=0;entryDy=0;" parent="1" source="QWWgwm_in2HaH2h3KdBQ-87" target="QWWgwm_in2HaH2h3KdBQ-95" edge="1">
          <mxGeometry width="50" height="50" relative="1" as="geometry">
            <mxPoint x="420" y="858.75" as="sourcePoint" />
            <mxPoint x="440" y="918.75" as="targetPoint" />
          </mxGeometry>
        </mxCell>
        <mxCell id="QWWgwm_in2HaH2h3KdBQ-94" value="M" style="edgeLabel;html=1;align=center;verticalAlign=middle;resizable=0;points=[];" parent="QWWgwm_in2HaH2h3KdBQ-93" vertex="1" connectable="0">
          <mxGeometry x="0.308" relative="1" as="geometry">
            <mxPoint as="offset" />
          </mxGeometry>
        </mxCell>
        <mxCell id="QWWgwm_in2HaH2h3KdBQ-95" value="Operates&amp;nbsp;&lt;br&gt;with" style="rhombus;whiteSpace=wrap;html=1;" parent="1" vertex="1">
          <mxGeometry x="47.5" y="828.75" width="85" height="80" as="geometry" />
        </mxCell>
        <mxCell id="QWWgwm_in2HaH2h3KdBQ-96" value="" style="endArrow=none;html=1;rounded=0;exitX=0.5;exitY=0;exitDx=0;exitDy=0;entryX=0;entryY=1;entryDx=0;entryDy=0;" parent="1" source="QWWgwm_in2HaH2h3KdBQ-95" target="QWWgwm_in2HaH2h3KdBQ-75" edge="1">
          <mxGeometry width="50" height="50" relative="1" as="geometry">
            <mxPoint x="535" y="808.75" as="sourcePoint" />
            <mxPoint x="580" y="838.75" as="targetPoint" />
          </mxGeometry>
        </mxCell>
        <mxCell id="QWWgwm_in2HaH2h3KdBQ-97" value="1" style="edgeLabel;html=1;align=center;verticalAlign=middle;resizable=0;points=[];" parent="QWWgwm_in2HaH2h3KdBQ-96" vertex="1" connectable="0">
          <mxGeometry x="0.308" relative="1" as="geometry">
            <mxPoint as="offset" />
          </mxGeometry>
        </mxCell>
        <mxCell id="QWWgwm_in2HaH2h3KdBQ-101" value="id*" style="rounded=0;whiteSpace=wrap;html=1;align=left;" parent="1" vertex="1">
          <mxGeometry x="490" y="1008.75" width="100" height="20" as="geometry" />
        </mxCell>
        <mxCell id="QWWgwm_in2HaH2h3KdBQ-102" value="provider" style="rounded=0;whiteSpace=wrap;html=1;align=left;" parent="1" vertex="1">
          <mxGeometry x="490" y="1028.75" width="100" height="20" as="geometry" />
        </mxCell>
        <mxCell id="QWWgwm_in2HaH2h3KdBQ-103" value="auth blob" style="rounded=0;whiteSpace=wrap;html=1;align=left;" parent="1" vertex="1">
          <mxGeometry x="490" y="1048.75" width="100" height="20" as="geometry" />
        </mxCell>
        <mxCell id="QWWgwm_in2HaH2h3KdBQ-104" value="id*" style="rounded=0;whiteSpace=wrap;html=1;align=left;" parent="1" vertex="1">
          <mxGeometry x="110" y="1008.75" width="100" height="20" as="geometry" />
        </mxCell>
        <mxCell id="QWWgwm_in2HaH2h3KdBQ-105" value="provider" style="rounded=0;whiteSpace=wrap;html=1;align=left;" parent="1" vertex="1">
          <mxGeometry x="110" y="1028.75" width="100" height="20" as="geometry" />
        </mxCell>
        <mxCell id="QWWgwm_in2HaH2h3KdBQ-106" value="auth blob" style="rounded=0;whiteSpace=wrap;html=1;align=left;" parent="1" vertex="1">
          <mxGeometry x="110" y="1048.75" width="100" height="20" as="geometry" />
        </mxCell>
        <mxCell id="QWWgwm_in2HaH2h3KdBQ-111" value="IS" style="triangle;whiteSpace=wrap;html=1;direction=west;" parent="1" vertex="1">
          <mxGeometry x="-50" y="956.25" width="35" height="45" as="geometry" />
        </mxCell>
        <mxCell id="QWWgwm_in2HaH2h3KdBQ-112" value="" style="endArrow=none;html=1;rounded=0;exitX=0;exitY=0.5;exitDx=0;exitDy=0;entryX=0;entryY=0.5;entryDx=0;entryDy=0;" parent="1" source="QWWgwm_in2HaH2h3KdBQ-87" target="QWWgwm_in2HaH2h3KdBQ-111" edge="1">
          <mxGeometry width="50" height="50" relative="1" as="geometry">
            <mxPoint x="255" y="848.75" as="sourcePoint" />
            <mxPoint x="255" y="768.75" as="targetPoint" />
          </mxGeometry>
        </mxCell>
        <mxCell id="QWWgwm_in2HaH2h3KdBQ-113" value="" style="endArrow=none;html=1;rounded=0;exitX=0.5;exitY=0;exitDx=0;exitDy=0;entryX=1;entryY=0.5;entryDx=0;entryDy=0;" parent="1" source="QWWgwm_in2HaH2h3KdBQ-72" target="QWWgwm_in2HaH2h3KdBQ-111" edge="1">
          <mxGeometry width="50" height="50" relative="1" as="geometry">
            <mxPoint x="100" y="988.75" as="sourcePoint" />
            <mxPoint x="5" y="988.75" as="targetPoint" />
          </mxGeometry>
        </mxCell>
        <mxCell id="QWWgwm_in2HaH2h3KdBQ-114" value="" style="endArrow=none;html=1;rounded=0;exitX=0.5;exitY=1;exitDx=0;exitDy=0;entryX=1;entryY=0.5;entryDx=0;entryDy=0;" parent="1" source="QWWgwm_in2HaH2h3KdBQ-115" target="QWWgwm_in2HaH2h3KdBQ-87" edge="1">
          <mxGeometry width="50" height="50" relative="1" as="geometry">
            <mxPoint x="315" y="978.22" as="sourcePoint" />
            <mxPoint x="210" y="978.22" as="targetPoint" />
          </mxGeometry>
        </mxCell>
        <mxCell id="QWWgwm_in2HaH2h3KdBQ-115" value="IS" style="triangle;whiteSpace=wrap;html=1;direction=south;" parent="1" vertex="1">
          <mxGeometry x="297.5" y="961.25" width="45" height="35" as="geometry" />
        </mxCell>
        <mxCell id="QWWgwm_in2HaH2h3KdBQ-116" value="" style="endArrow=none;html=1;rounded=0;exitX=0.5;exitY=0;exitDx=0;exitDy=0;entryX=1;entryY=0.5;entryDx=0;entryDy=0;" parent="1" source="QWWgwm_in2HaH2h3KdBQ-74" target="QWWgwm_in2HaH2h3KdBQ-115" edge="1">
          <mxGeometry width="50" height="50" relative="1" as="geometry">
            <mxPoint x="-40" y="1058.75" as="sourcePoint" />
            <mxPoint x="-40" y="988.75" as="targetPoint" />
          </mxGeometry>
        </mxCell>
        <mxCell id="QWWgwm_in2HaH2h3KdBQ-118" style="edgeStyle=orthogonalEdgeStyle;rounded=0;orthogonalLoop=1;jettySize=auto;html=1;" parent="1" source="QWWgwm_in2HaH2h3KdBQ-119" edge="1">
          <mxGeometry relative="1" as="geometry">
            <mxPoint x="690" y="531" as="targetPoint" />
          </mxGeometry>
        </mxCell>
        <mxCell id="QWWgwm_in2HaH2h3KdBQ-119" value="IS" style="triangle;whiteSpace=wrap;html=1;direction=south;" parent="1" vertex="1">
          <mxGeometry x="667.5" y="420" width="45" height="35" as="geometry" />
        </mxCell>
        <mxCell id="QWWgwm_in2HaH2h3KdBQ-125" value="name*" style="rounded=0;whiteSpace=wrap;html=1;align=left;" parent="1" vertex="1">
          <mxGeometry x="640" y="590" width="100" height="20" as="geometry" />
        </mxCell>
        <mxCell id="QWWgwm_in2HaH2h3KdBQ-134" value="code blob" style="rounded=0;whiteSpace=wrap;html=1;align=left;" parent="1" vertex="1">
          <mxGeometry x="1010" y="1100" width="100" height="20" as="geometry" />
        </mxCell>
        <mxCell id="QWWgwm_in2HaH2h3KdBQ-138" value="" style="endArrow=none;html=1;rounded=0;exitX=0.5;exitY=0;exitDx=0;exitDy=0;entryX=1;entryY=1;entryDx=0;entryDy=0;shape=link;" parent="1" source="Zjhu46lZlZ1TYFW_hqHB-16" target="QWWgwm_in2HaH2h3KdBQ-125" edge="1">
          <mxGeometry width="50" height="50" relative="1" as="geometry">
            <mxPoint x="1180" y="1020" as="sourcePoint" />
            <mxPoint x="900" y="990" as="targetPoint" />
          </mxGeometry>
        </mxCell>
        <mxCell id="QWWgwm_in2HaH2h3KdBQ-139" value="1" style="edgeLabel;html=1;align=center;verticalAlign=middle;resizable=0;points=[];" parent="QWWgwm_in2HaH2h3KdBQ-138" vertex="1" connectable="0">
          <mxGeometry x="-0.2143" relative="1" as="geometry">
            <mxPoint as="offset" />
          </mxGeometry>
        </mxCell>
        <mxCell id="QWWgwm_in2HaH2h3KdBQ-144" value="Has next&lt;br&gt;job" style="rhombus;whiteSpace=wrap;html=1;" parent="1" vertex="1">
          <mxGeometry x="1120" y="698.75" width="80" height="80" as="geometry" />
        </mxCell>
        <mxCell id="QWWgwm_in2HaH2h3KdBQ-145" value="" style="endArrow=none;html=1;rounded=0;exitX=1;exitY=0.5;exitDx=0;exitDy=0;entryX=0.5;entryY=0;entryDx=0;entryDy=0;" parent="1" source="QWWgwm_in2HaH2h3KdBQ-47" target="QWWgwm_in2HaH2h3KdBQ-144" edge="1">
          <mxGeometry width="50" height="50" relative="1" as="geometry">
            <mxPoint x="1470" y="721" as="sourcePoint" />
            <mxPoint x="1360" y="711" as="targetPoint" />
          </mxGeometry>
        </mxCell>
        <mxCell id="QWWgwm_in2HaH2h3KdBQ-146" value="M" style="edgeLabel;html=1;align=center;verticalAlign=middle;resizable=0;points=[];" parent="QWWgwm_in2HaH2h3KdBQ-145" vertex="1" connectable="0">
          <mxGeometry x="0.308" relative="1" as="geometry">
            <mxPoint as="offset" />
          </mxGeometry>
        </mxCell>
        <mxCell id="QWWgwm_in2HaH2h3KdBQ-147" value="" style="endArrow=none;html=1;rounded=0;entryX=0.5;entryY=1;entryDx=0;entryDy=0;exitX=1;exitY=0.5;exitDx=0;exitDy=0;" parent="1" source="QWWgwm_in2HaH2h3KdBQ-47" target="QWWgwm_in2HaH2h3KdBQ-144" edge="1">
          <mxGeometry width="50" height="50" relative="1" as="geometry">
            <mxPoint x="1470" y="781" as="sourcePoint" />
            <mxPoint x="1360" y="791" as="targetPoint" />
          </mxGeometry>
        </mxCell>
        <mxCell id="QWWgwm_in2HaH2h3KdBQ-148" value="1" style="edgeLabel;html=1;align=center;verticalAlign=middle;resizable=0;points=[];" parent="QWWgwm_in2HaH2h3KdBQ-147" vertex="1" connectable="0">
          <mxGeometry x="0.308" relative="1" as="geometry">
            <mxPoint as="offset" />
          </mxGeometry>
        </mxCell>
        <mxCell id="QWWgwm_in2HaH2h3KdBQ-151" style="edgeStyle=orthogonalEdgeStyle;rounded=0;orthogonalLoop=1;jettySize=auto;html=1;exitX=1;exitY=1;exitDx=0;exitDy=0;entryX=0.5;entryY=0;entryDx=0;entryDy=0;shape=link;" parent="1" source="Zjhu46lZlZ1TYFW_hqHB-68" target="QWWgwm_in2HaH2h3KdBQ-119" edge="1">
          <mxGeometry relative="1" as="geometry">
            <mxPoint x="700" y="541" as="targetPoint" />
            <mxPoint x="700" y="465" as="sourcePoint" />
            <Array as="points">
              <mxPoint x="740" y="438" />
            </Array>
          </mxGeometry>
        </mxCell>
        <mxCell id="QWWgwm_in2HaH2h3KdBQ-152" value="IS" style="rhombus;whiteSpace=wrap;html=1;strokeWidth=1;" parent="1" vertex="1">
          <mxGeometry x="52.5" y="520" width="80" height="80" as="geometry" />
        </mxCell>
        <mxCell id="QWWgwm_in2HaH2h3KdBQ-153" value="" style="endArrow=none;html=1;rounded=0;exitX=0.5;exitY=1;exitDx=0;exitDy=0;shape=link;" parent="1" source="QWWgwm_in2HaH2h3KdBQ-152" target="QWWgwm_in2HaH2h3KdBQ-75" edge="1">
          <mxGeometry width="50" height="50" relative="1" as="geometry">
            <mxPoint x="315" y="739" as="sourcePoint" />
            <mxPoint x="415" y="830" as="targetPoint" />
          </mxGeometry>
        </mxCell>
        <mxCell id="QWWgwm_in2HaH2h3KdBQ-154" value="M" style="edgeLabel;html=1;align=center;verticalAlign=middle;resizable=0;points=[];" parent="QWWgwm_in2HaH2h3KdBQ-153" vertex="1" connectable="0">
          <mxGeometry x="0.308" relative="1" as="geometry">
            <mxPoint as="offset" />
          </mxGeometry>
        </mxCell>
        <mxCell id="QWWgwm_in2HaH2h3KdBQ-155" value="1" style="edgeLabel;html=1;align=center;verticalAlign=middle;resizable=0;points=[];" parent="QWWgwm_in2HaH2h3KdBQ-153" vertex="1" connectable="0">
          <mxGeometry x="0.2301" y="1" relative="1" as="geometry">
            <mxPoint y="-1" as="offset" />
          </mxGeometry>
        </mxCell>
        <mxCell id="QWWgwm_in2HaH2h3KdBQ-156" value="IS" style="rhombus;whiteSpace=wrap;html=1;perimeterSpacing=0;strokeWidth=1;" parent="1" vertex="1">
          <mxGeometry x="205" y="560" width="80" height="80" as="geometry" />
        </mxCell>
        <mxCell id="QWWgwm_in2HaH2h3KdBQ-157" value="" style="endArrow=none;html=1;rounded=0;exitX=0.5;exitY=1;exitDx=0;exitDy=0;shape=link;entryX=0.5;entryY=0;entryDx=0;entryDy=0;" parent="1" source="QWWgwm_in2HaH2h3KdBQ-156" target="QWWgwm_in2HaH2h3KdBQ-76" edge="1">
          <mxGeometry width="50" height="50" relative="1" as="geometry">
            <mxPoint x="103" y="610" as="sourcePoint" />
            <mxPoint x="101" y="709" as="targetPoint" />
          </mxGeometry>
        </mxCell>
        <mxCell id="QWWgwm_in2HaH2h3KdBQ-158" value="M" style="edgeLabel;html=1;align=center;verticalAlign=middle;resizable=0;points=[];" parent="QWWgwm_in2HaH2h3KdBQ-157" vertex="1" connectable="0">
          <mxGeometry x="0.308" relative="1" as="geometry">
            <mxPoint as="offset" />
          </mxGeometry>
        </mxCell>
        <mxCell id="QWWgwm_in2HaH2h3KdBQ-159" value="1" style="edgeLabel;html=1;align=center;verticalAlign=middle;resizable=0;points=[];" parent="QWWgwm_in2HaH2h3KdBQ-157" vertex="1" connectable="0">
          <mxGeometry x="0.2301" y="1" relative="1" as="geometry">
            <mxPoint y="-1" as="offset" />
          </mxGeometry>
        </mxCell>
        <mxCell id="QWWgwm_in2HaH2h3KdBQ-160" value="" style="endArrow=none;html=1;rounded=0;exitX=0;exitY=0.5;exitDx=0;exitDy=0;entryX=1;entryY=0.5;entryDx=0;entryDy=0;" parent="1" source="QWWgwm_in2HaH2h3KdBQ-79" target="QWWgwm_in2HaH2h3KdBQ-152" edge="1">
          <mxGeometry width="50" height="50" relative="1" as="geometry">
            <mxPoint x="103" y="610" as="sourcePoint" />
            <mxPoint x="101" y="709" as="targetPoint" />
          </mxGeometry>
        </mxCell>
        <mxCell id="QWWgwm_in2HaH2h3KdBQ-161" value="1" style="edgeLabel;html=1;align=center;verticalAlign=middle;resizable=0;points=[];" parent="QWWgwm_in2HaH2h3KdBQ-160" vertex="1" connectable="0">
          <mxGeometry x="0.308" relative="1" as="geometry">
            <mxPoint as="offset" />
          </mxGeometry>
        </mxCell>
        <mxCell id="QWWgwm_in2HaH2h3KdBQ-165" value="" style="endArrow=none;html=1;rounded=0;exitX=0;exitY=0.5;exitDx=0;exitDy=0;entryX=1;entryY=0.5;entryDx=0;entryDy=0;" parent="1" source="QWWgwm_in2HaH2h3KdBQ-79" target="QWWgwm_in2HaH2h3KdBQ-156" edge="1">
          <mxGeometry width="50" height="50" relative="1" as="geometry">
            <mxPoint x="630" y="570" as="sourcePoint" />
            <mxPoint x="143" y="570" as="targetPoint" />
          </mxGeometry>
        </mxCell>
        <mxCell id="QWWgwm_in2HaH2h3KdBQ-166" value="1" style="edgeLabel;html=1;align=center;verticalAlign=middle;resizable=0;points=[];" parent="QWWgwm_in2HaH2h3KdBQ-165" vertex="1" connectable="0">
          <mxGeometry x="0.308" relative="1" as="geometry">
            <mxPoint as="offset" />
          </mxGeometry>
        </mxCell>
        <mxCell id="QWWgwm_in2HaH2h3KdBQ-168" value="" style="endArrow=none;html=1;rounded=0;exitX=0.5;exitY=0;exitDx=0;exitDy=0;entryX=0;entryY=1;entryDx=0;entryDy=0;shape=link;" parent="1" source="QWWgwm_in2HaH2h3KdBQ-88" target="QWWgwm_in2HaH2h3KdBQ-76" edge="1">
          <mxGeometry width="50" height="50" relative="1" as="geometry">
            <mxPoint x="245" y="839" as="sourcePoint" />
            <mxPoint x="245" y="759" as="targetPoint" />
          </mxGeometry>
        </mxCell>
        <mxCell id="QWWgwm_in2HaH2h3KdBQ-167" value="app_name*" style="rounded=0;whiteSpace=wrap;html=1;align=left;" parent="1" vertex="1">
          <mxGeometry x="202.5" y="758.75" width="100" height="20" as="geometry" />
        </mxCell>
        <mxCell id="QWWgwm_in2HaH2h3KdBQ-170" value="app_name*" style="rounded=0;whiteSpace=wrap;html=1;align=left;" parent="1" vertex="1">
          <mxGeometry x="50" y="758.75" width="100" height="20" as="geometry" />
        </mxCell>
        <mxCell id="QWWgwm_in2HaH2h3KdBQ-190" value="environment*" style="rounded=0;whiteSpace=wrap;html=1;align=left;" parent="1" vertex="1">
          <mxGeometry x="640" y="360" width="100" height="20" as="geometry" />
        </mxCell>
        <mxCell id="QWWgwm_in2HaH2h3KdBQ-191" value="image" style="rounded=0;whiteSpace=wrap;html=1;align=left;" parent="1" vertex="1">
          <mxGeometry x="640" y="400" width="100" height="20" as="geometry" />
        </mxCell>
        <mxCell id="QWWgwm_in2HaH2h3KdBQ-193" value="Trace" style="rounded=0;whiteSpace=wrap;html=1;strokeWidth=3;shadow=0;sketch=1;curveFitting=1;jiggle=2;" parent="1" vertex="1">
          <mxGeometry x="490" y="-50" width="120" height="60" as="geometry" />
        </mxCell>
        <mxCell id="QWWgwm_in2HaH2h3KdBQ-194" value="payload" style="rounded=0;whiteSpace=wrap;html=1;align=left;" parent="1" vertex="1">
          <mxGeometry x="510" y="30" width="100" height="20" as="geometry" />
        </mxCell>
        <mxCell id="QWWgwm_in2HaH2h3KdBQ-195" value="timestamp" style="rounded=0;whiteSpace=wrap;html=1;align=left;" parent="1" vertex="1">
          <mxGeometry x="510" y="10" width="100" height="20" as="geometry" />
        </mxCell>
        <mxCell id="QWWgwm_in2HaH2h3KdBQ-196" value="Traced" style="rhombus;whiteSpace=wrap;html=1;sketch=1;curveFitting=1;jiggle=2;strokeWidth=3;" parent="1" vertex="1">
          <mxGeometry x="510" y="160" width="80" height="80" as="geometry" />
        </mxCell>
        <mxCell id="QWWgwm_in2HaH2h3KdBQ-197" value="" style="endArrow=none;html=1;rounded=0;exitX=0.5;exitY=0;exitDx=0;exitDy=0;entryX=1;entryY=0.5;entryDx=0;entryDy=0;" parent="1" source="Zjhu46lZlZ1TYFW_hqHB-68" target="QWWgwm_in2HaH2h3KdBQ-196" edge="1">
          <mxGeometry width="50" height="50" relative="1" as="geometry">
            <mxPoint x="750" y="310" as="sourcePoint" />
            <mxPoint x="810" y="190" as="targetPoint" />
          </mxGeometry>
        </mxCell>
        <mxCell id="QWWgwm_in2HaH2h3KdBQ-198" value="M" style="edgeLabel;html=1;align=center;verticalAlign=middle;resizable=0;points=[];" parent="QWWgwm_in2HaH2h3KdBQ-197" vertex="1" connectable="0">
          <mxGeometry x="0.308" relative="1" as="geometry">
            <mxPoint as="offset" />
          </mxGeometry>
        </mxCell>
        <mxCell id="QWWgwm_in2HaH2h3KdBQ-199" value="" style="endArrow=none;html=1;rounded=0;exitX=0.5;exitY=0;exitDx=0;exitDy=0;entryX=0;entryY=0.5;entryDx=0;entryDy=0;" parent="1" source="Zjhu46lZlZ1TYFW_hqHB-10" target="QWWgwm_in2HaH2h3KdBQ-196" edge="1">
          <mxGeometry width="50" height="50" relative="1" as="geometry">
            <mxPoint x="690" y="310" as="sourcePoint" />
            <mxPoint x="580" y="230" as="targetPoint" />
          </mxGeometry>
        </mxCell>
        <mxCell id="QWWgwm_in2HaH2h3KdBQ-200" value="M" style="edgeLabel;html=1;align=center;verticalAlign=middle;resizable=0;points=[];" parent="QWWgwm_in2HaH2h3KdBQ-199" vertex="1" connectable="0">
          <mxGeometry x="0.308" relative="1" as="geometry">
            <mxPoint as="offset" />
          </mxGeometry>
        </mxCell>
        <mxCell id="QWWgwm_in2HaH2h3KdBQ-201" value="" style="endArrow=none;html=1;rounded=0;entryX=0.413;entryY=0.924;entryDx=0;entryDy=0;entryPerimeter=0;" parent="1" source="QWWgwm_in2HaH2h3KdBQ-196" target="QWWgwm_in2HaH2h3KdBQ-194" edge="1">
          <mxGeometry width="50" height="50" relative="1" as="geometry">
            <mxPoint x="700" y="320" as="sourcePoint" />
            <mxPoint x="590" y="240" as="targetPoint" />
          </mxGeometry>
        </mxCell>
        <mxCell id="QWWgwm_in2HaH2h3KdBQ-202" value="M" style="edgeLabel;html=1;align=center;verticalAlign=middle;resizable=0;points=[];" parent="QWWgwm_in2HaH2h3KdBQ-201" vertex="1" connectable="0">
          <mxGeometry x="0.308" relative="1" as="geometry">
            <mxPoint as="offset" />
          </mxGeometry>
        </mxCell>
        <mxCell id="nkliUi534KyMAxsKf_wK-4" value="M" style="edgeLabel;html=1;align=center;verticalAlign=middle;resizable=0;points=[];" vertex="1" connectable="0" parent="QWWgwm_in2HaH2h3KdBQ-201">
          <mxGeometry x="-0.4339" y="2" relative="1" as="geometry">
            <mxPoint as="offset" />
          </mxGeometry>
        </mxCell>
        <mxCell id="nkliUi534KyMAxsKf_wK-1" value="trace_id*" style="rounded=0;whiteSpace=wrap;html=1;align=left;" vertex="1" parent="1">
          <mxGeometry x="510" y="50" width="100" height="20" as="geometry" />
        </mxCell>
        <mxCell id="nkliUi534KyMAxsKf_wK-2" value="env*" style="rounded=0;whiteSpace=wrap;html=1;align=left;" vertex="1" parent="1">
          <mxGeometry x="510" y="70" width="100" height="20" as="geometry" />
        </mxCell>
        <mxCell id="nkliUi534KyMAxsKf_wK-5" value="container*" style="rounded=0;whiteSpace=wrap;html=1;align=left;" vertex="1" parent="1">
          <mxGeometry x="510" y="90" width="100" height="20" as="geometry" />
        </mxCell>
      </root>
    </mxGraphModel>
  </diagram>
</mxfile>
